<svg xmlns="http://www.w3.org/2000/svg" width="42" height="33" viewBox="0 0 42 33" fill="none"><path d="M22.8115 33L33.6805 8.48193L34.4856 14.4458C32.607 14.4458 30.9968 13.7831 29.655 12.4578C28.3131 11.1325 27.6422 9.49799 27.6422 7.55421C27.6422 5.34538 28.4026 3.53414 29.9233 2.12048C31.3546 0.70683 33.099 7.78147e-07 35.1565 5.98274e-07C37.0351 4.34042e-07 38.6454 0.662648 39.9872 1.98795C41.3291 3.31325 42 4.90361 42 6.75904C42 7.99599 41.8211 9.1004 41.4633 10.0723C41.016 11.1325 40.3898 12.3695 39.5847 13.7831L29.2524 33L22.8115 33ZM0 33L10.869 8.48193L11.6741 14.4458C9.79552 14.4458 8.1853 13.7831 6.84345 12.4578C5.50159 11.1325 4.83067 9.49799 4.83067 7.55422C4.83067 5.34538 5.59106 3.53414 7.11182 2.12048C8.54313 0.706832 10.2875 2.77239e-06 12.345 2.59252e-06C14.2236 2.42829e-06 15.8339 0.66265 17.1757 1.98795C18.5176 3.31325 19.1885 4.90362 19.1885 6.75904C19.1885 7.99599 19.0096 9.1004 18.6518 10.0723C18.2045 11.1325 17.5783 12.3695 16.7732 13.7831L6.4409 33L0 33Z" fill="url(#paint0_linear_167_97)"></path><defs><linearGradient id="paint0_linear_167_97" x1="39" y1="36" x2="21" y2="2.1915e-06" gradientUnits="userSpaceOnUse"><stop offset="0.00244289" stop-color="#41AD49"></stop><stop offset="1" stop-color="#B8DD16"></stop></linearGradient></defs></svg>